<?xml version="1.0" encoding="UTF-8"?>
<svg width="18px" height="16px" viewBox="0 0 18 16" version="1.1" xmlns="http://www.w3.org/2000/svg" xmlns:xlink="http://www.w3.org/1999/xlink">
    <!-- Generator: Sketch 63.1 (92452) - https://sketch.com -->
    <title>Combined Shape</title>
    <desc>Created with Sketch.</desc>
    <g id="Page-1" stroke="none" stroke-width="1" fill="none" fill-rule="evenodd">
        <g id="Group-31" transform="translate(-63.000000, -12.000000)" fill="#979797" fill-rule="nonzero">
            <path d="M75.9715576,12 C77.3618774,12 78.6404114,12.5558309 79.572052,13.5656842 C80.4928436,14.5636003 81,15.9266278 81,17.4046359 C81,18.9253158 80.4328308,20.3179803 79.2149963,21.7859721 C78.1252899,23.0996047 76.5596008,24.4328579 74.74617,25.976726 C74.1265411,26.5041548 73.4243774,27.1021087 72.6958466,27.7390297 C72.5049591,27.9058751 72.260376,27.9984907 72.0063172,28 L72,28 C71.7437439,28 71.4966889,27.9072472 71.3041534,27.7387553 C70.5769959,27.1034808 69.8759308,26.506213 69.2574005,25.9794702 L69.254242,25.9771377 C67.4410858,24.4331324 65.8747101,23.0996047 64.7852783,21.7859721 C63.5671692,20.3179803 63,18.9253158 63,17.4046359 C63,15.9270395 63.5071564,14.5636003 64.427948,13.5656842 C65.3598633,12.5558309 66.6383972,12 68.0284424,12 C69.0676117,12 70.0188904,12.3279279 70.8567352,12.9751396 C71.2795715,13.3019698 71.6625824,13.7015204 72,14.1681659 L72,14.1597962 C72.3362803,13.6967182 72.7174988,13.2999117 73.1380211,12.9751396 C73.9761795,12.3279279 74.9285387,12 75.9680256,12 L75.9715576,12 Z" id="Combined-Shape"></path>
        </g>
    </g>
</svg>