<svg xmlns="http://www.w3.org/2000/svg" viewBox="0 0 801.12 645.28"><defs><style>.cls-1{fill:#5c6bdd;}.cls-2{fill:#1ce8b5;}</style></defs><g id="Layer_2" data-name="Layer 2"><g id="Layer_1-2" data-name="Layer 1"><path class="cls-1" d="M245,358.93c-2.49.13-5,.22-7.67.22H129.24V145H227c46.36,0,77.43,15.55,92.87,47.65L372.65,75.36Q334.07,58,280.21,58H0V446.13H205.72Z"/><path class="cls-2" d="M428.74,0,191.45,532.24l-36.43,0L392.58,0Z"/><path class="cls-1" d="M336.28,257.14H616.49c120,0,184.63,64.69,184.63,194.07C801.12,604,711,645.28,599.65,645.28H336.28ZM465.52,558.3H573.59c73.85,0,93.94-54.36,93.94-107.63,0-72.31-35.29-106.55-104.26-106.55H465.52Z"/></g></g></svg>